<svg width="512" height="512" viewBox="0 0 512 512" fill="none" xmlns="http://www.w3.org/2000/svg">
<g clip-path="url(#clip0_65_34)">
<rect width="512" height="512" fill="#342A22"/>
<g filter="url(#filter0_d_65_34)">
<path d="M262.307 421C248.292 421 235.835 418.816 224.934 414.447C214.034 410.078 205.47 402.745 199.241 392.447C193.324 381.837 190.365 367.794 190.365 350.319V188.064H167.748C163.469 188.064 160 184.595 160 180.316C160 176.369 162.974 173.076 166.876 172.479C180.34 170.417 190.817 166.974 198.307 162.149C207.338 156.532 214.034 148.418 218.394 137.809C222.229 128.842 225.54 118.087 228.326 105.544C229.444 100.508 233.52 96.6223 238.633 95.9356L272.285 91.4166C274.293 91.1469 276.333 91.5687 278.069 92.6127C280.753 94.226 282.394 97.1279 282.394 100.259V170.574H332.978C337.807 170.574 341.723 174.49 341.723 179.319C341.723 184.149 337.807 188.064 332.978 188.064H282.394V336.745C282.394 349.539 282.394 396 309.489 392.5C309.489 392.5 300.219 383.223 296.771 375.457C295.712 373.07 297.97 371.112 300.552 371.504C302.141 371.746 303.896 371.936 305.489 371.936C312.652 371.936 319.504 370.376 326.044 367.255C330.561 365.1 334.931 362.2 339.151 358.555C342.206 355.917 346.937 356.171 349.351 359.406C350.949 361.549 351.082 364.458 349.627 366.701C339.038 383.025 327.372 395.976 314.628 405.553C300.925 415.851 283.484 421 262.307 421Z" fill="#D1A17A"/>
<path d="M198.804 392.69L198.808 392.698L198.813 392.706C205.096 403.094 213.745 410.501 224.748 414.911C235.718 419.308 248.24 421.5 262.307 421.5C283.567 421.5 301.12 416.33 314.928 405.953C327.728 396.334 339.433 383.336 350.047 366.973C351.619 364.55 351.471 361.413 349.751 359.107C347.144 355.613 342.073 355.372 338.824 358.177C334.634 361.795 330.302 364.67 325.828 366.804C319.355 369.893 312.577 371.436 305.489 371.436C303.932 371.436 302.204 371.25 300.627 371.01C299.198 370.793 297.825 371.22 296.946 372.081C296.047 372.961 295.697 374.269 296.314 375.66C298.068 379.609 301.285 383.914 304.039 387.211C305.421 388.865 306.693 390.274 307.621 391.27C307.926 391.597 308.193 391.88 308.415 392.112C302.313 392.627 297.704 390.47 294.19 386.722C290.461 382.746 287.949 376.959 286.264 370.605C282.897 357.899 282.894 343.148 282.894 336.745V188.564H332.978C338.084 188.564 342.223 184.425 342.223 179.319C342.223 174.213 338.084 170.074 332.978 170.074H282.894V100.259C282.894 96.9525 281.161 93.8879 278.327 92.1842L278.07 92.6107L278.327 92.1842C276.493 91.0817 274.339 90.6362 272.218 90.921L238.566 95.4401C233.237 96.1558 229 100.203 227.838 105.436C225.057 117.957 221.754 128.681 217.934 137.612L217.934 137.612L217.932 137.618C213.608 148.139 206.978 156.167 198.043 161.724L198.042 161.724L198.036 161.729C190.628 166.5 180.228 169.928 166.8 171.984C162.668 172.617 159.5 176.109 159.5 180.316C159.5 184.871 163.193 188.564 167.748 188.564H189.865V350.319C189.865 367.845 192.831 381.98 198.804 392.69Z" stroke="#231B16"/>
</g>
</g>
<defs>
<filter id="filter0_d_65_34" x="155" y="90.3374" width="200.639" height="339.663" filterUnits="userSpaceOnUse" color-interpolation-filters="sRGB">
<feFlood flood-opacity="0" result="BackgroundImageFix"/>
<feColorMatrix in="SourceAlpha" type="matrix" values="0 0 0 0 0 0 0 0 0 0 0 0 0 0 0 0 0 0 127 0" result="hardAlpha"/>
<feOffset dy="4"/>
<feGaussianBlur stdDeviation="2"/>
<feComposite in2="hardAlpha" operator="out"/>
<feColorMatrix type="matrix" values="0 0 0 0 0 0 0 0 0 0 0 0 0 0 0 0 0 0 0.25 0"/>
<feBlend mode="normal" in2="BackgroundImageFix" result="effect1_dropShadow_65_34"/>
<feBlend mode="normal" in="SourceGraphic" in2="effect1_dropShadow_65_34" result="shape"/>
</filter>
<clipPath id="clip0_65_34">
<rect width="512" height="512" fill="white"/>
</clipPath>
</defs>
</svg>
